<svg xml:space="preserve" style="max-height: 500px" viewBox="412 832 1196 336" y="0px" x="0px" xmlns:xlink="http://www.w3.org/1999/xlink" xmlns="http://www.w3.org/2000/svg" id="Layer_1" version="1.1" width="1196" height="336">
<style type="text/css">
	.st0{display:none;}
	.st1{fill:#9089FC;}
</style>
<g>
	<g>
		<g>
			<path d="M771.22,1059.54V942.08h99.69v20.52h-79.33v96.94H771.22z M806.6,1010.91v-17.93h59.46v17.93H806.6z"/>
			<path d="M885.12,1059.54V942.08h20.52v96.94h79.01v20.52H885.12z"/>
			<path d="M1028.91,1059.54v-44.59l-62.37-72.87h27.63l45.72,54.12l45.89-54.12h26.17l-62.53,72.87v44.59H1028.91z"/>
			<path d="M1161.88,1059.54V962.6h-44.59v-20.52h109.7v20.52h-44.59v96.94H1161.88z"/>
			<path d="M1240.56,1059.54V942.08h104.86v20.52h-84.5v76.42h84.66v20.52H1240.56z M1275.94,1008.48v-17.29h65.11v17.29H1275.94z"/>
			<path d="M1516.03,1059.54l-17.61-29.57h-55.58l9.69-16.64h36.03l-26.17-43.95l-53.32,90.15h-23.43l67.54-112.45&#10;&#9;&#9;&#9;&#9;c1.18-2.04,2.59-3.66,4.2-4.85c1.62-1.18,3.55-1.78,5.82-1.78c2.26,0,4.17,0.59,5.74,1.78c1.56,1.19,2.93,2.8,4.12,4.85&#10;&#9;&#9;&#9;&#9;l67.7,112.45H1516.03z" class="st1"/>
			<path d="M1554.48,1059.54V942.08H1575v117.46H1554.48z" class="st1"/>
		</g>
	</g>
	<g>
		<g>
			<path d="M649.33,1061.19c4.81-17.33,7.64-36.71,7.96-57.2h-17.62l-17.74,50.78c8.27,1.4,16.23,3.19,23.81,5.35&#10;&#9;&#9;&#9;&#9;C646.94,1060.47,648.14,1060.82,649.33,1061.19z"/>
			<path d="M628.2,891.89c-5.87-8.45-12.4-15.37-19.35-20.49c-7.91-5.83-16.3-9.32-25.04-10.22v78.9l60.68-16.2&#10;&#9;&#9;&#9;&#9;C639.99,911.74,634.49,900.93,628.2,891.89z"/>
			<path d="M640.78,896.85c4.41,7.7,8.3,16.24,11.63,25.42c2.17,0.07,4.33,0.76,6.1,1.97c0.86,0.58,1.61,1.28,2.26,2.05&#10;&#9;&#9;&#9;&#9;c10.14-4.04,19.2-8.79,26.89-14.1c-2.99-3.67-6.16-7.19-9.51-10.54c-17.5-17.49-39.61-30.33-64.37-36.55&#10;&#9;&#9;&#9;&#9;C624.09,872.75,633.18,883.6,640.78,896.85z"/>
			<path d="M524.73,900.83c-5.08,8.84-9.48,18.95-13.07,30.01c1.46,0.45,2.93,0.9,4.42,1.33c17.91,5.12,38.2,8.15,59.73,8.49v-79.57&#10;&#9;&#9;&#9;&#9;c-9.12,0.72-17.86,4.26-26.09,10.32C540.46,878.22,531.94,888.26,524.73,900.83z"/>
			<path d="M663.27,936.17c-0.1,0.46-0.23,0.91-0.38,1.34l-3.29,9.41c3.43,15.29,5.41,31.81,5.68,49.07h53.54&#10;&#9;&#9;&#9;&#9;c-0.82-28.9-10.44-55.56-26.28-77.45c-8.39,5.84-18.17,10.96-29.03,15.27C663.51,934.6,663.44,935.38,663.27,936.17z"/>
			<path d="M654.34,961.98l-11.88,34.01h14.85C657.12,984.22,656.08,972.84,654.34,961.98z"/>
			<path d="M509.34,938.49c-2.03,7.26-3.68,14.89-4.98,22.8l51.39-13.72c-14.84-1.38-28.91-4.02-41.86-7.72&#10;&#9;&#9;&#9;&#9;C512.35,939.42,510.84,938.96,509.34,938.49z"/>
			<path d="M517.79,1103.15c-4.35-7.59-8.19-15.99-11.48-25.02c-1.92-0.03-3.81-0.53-5.49-1.48c-1.18-0.67-2.21-1.53-3.06-2.53&#10;&#9;&#9;&#9;&#9;c-9.7,3.94-18.4,8.54-25.8,13.66c2.99,3.67,6.17,7.19,9.51,10.54c17.11,17.11,38.64,29.77,62.74,36.13&#10;&#9;&#9;&#9;&#9;C534.15,1126.84,525.25,1116.15,517.79,1103.15z"/>
			<path d="M634.77,1112.68c-6.23,8.96-13.25,16.47-20.95,22.19c24.74-6.22,46.84-19.06,64.33-36.54c3.35-3.35,6.52-6.87,9.51-10.54&#10;&#9;&#9;&#9;&#9;c-9.21-6.36-20.38-11.94-33.04-16.43C649.54,1087.1,642.81,1101.1,634.77,1112.68z"/>
			<path d="M657.11,1063.09c-0.06,0.2-0.12,0.4-0.17,0.6c13.53,4.76,25.55,10.75,35.61,17.75c15.84-21.89,25.47-48.55,26.28-77.45&#10;&#9;&#9;&#9;&#9;h-53.52C664.99,1025.09,662.08,1045.09,657.11,1063.09z"/>
			<path d="M633.84,1099.17c5.13-8.93,9.56-19.15,13.17-30.33c-1.15-0.35-2.31-0.69-3.47-1.03c-7.69-2.2-15.81-4.01-24.29-5.39&#10;&#9;&#9;&#9;&#9;l-12.53,35.88c-1.25,3.57-4.17,6.29-7.82,7.29c-0.98,0.27-1.99,0.4-3.01,0.4c0,0,0,0,0,0c-2.71,0-5.35-0.97-7.42-2.73l-4.66-3.96&#10;&#9;&#9;&#9;&#9;v39.52c8.74-0.9,17.13-4.39,25.04-10.22C618.11,1121.78,626.64,1111.74,633.84,1099.17z"/>
			<path d="M495.04,1065.7l1.93-22.63c-1.14-6.44-2.03-13.07-2.65-19.84l-22.64-19.24H440.8c0.82,28.89,10.44,55.56,26.28,77.45&#10;&#9;&#9;&#9;&#9;c8.1-5.64,17.51-10.61,27.92-14.82C495,1066.31,495.02,1066.01,495.04,1065.7z"/>
			<path d="M528.85,1064.62l-15.01,10.87c4.54,12.39,10.13,23.42,16.53,32.62c5.87,8.45,12.4,15.37,19.35,20.49&#10;&#9;&#9;&#9;&#9;c8.23,6.06,16.98,9.59,26.09,10.32v-46.42l-35.39-30.08C536.49,1063.06,532.63,1063.8,528.85,1064.62z"/>
			<path d="M457.94,992.31c-3.26-2.77-4.7-7.08-3.76-11.26c0.94-4.17,4.09-7.45,8.23-8.56l33.49-8.94&#10;&#9;&#9;&#9;&#9;c1.37-9.26,3.23-18.18,5.57-26.64c0.09-0.32,0.18-0.64,0.28-0.96c-13.14-4.7-24.84-10.57-34.66-17.41&#10;&#9;&#9;&#9;&#9;c-15.84,21.89-25.47,48.55-26.28,77.45h21.47L457.94,992.31z"/>
			<path d="M523.81,887.32c6.1-8.77,12.96-16.14,20.47-21.82c-24.12,6.36-45.67,19.02-62.8,36.15c-3.35,3.35-6.52,6.87-9.51,10.54&#10;&#9;&#9;&#9;&#9;c8.98,6.21,19.83,11.66,32.11,16.09C509.14,912.69,515.82,898.81,523.81,887.32z"/>
			<path d="M504.5,1070.16c1.37,0.77,3.04,0.68,4.31-0.24l28.05-20.32l56.45,47.98c1.01,0.86,2.36,1.16,3.64,0.81&#10;&#9;&#9;&#9;&#9;c1.28-0.35,2.29-1.29,2.73-2.54l56.17-160.82c0.05-0.15,0.09-0.3,0.13-0.45c0.34-1.56-0.32-3.26-1.65-4.17&#10;&#9;&#9;&#9;&#9;c-0.94-0.64-2.18-0.86-3.28-0.56l-186.7,49.86c-1.44,0.39-2.54,1.53-2.87,2.98c-0.33,1.46,0.17,2.96,1.31,3.93l43.36,36.85&#10;&#9;&#9;&#9;&#9;l-3.65,42.86C502.35,1067.9,503.13,1069.39,504.5,1070.16z M534.48,1041.44l-23.29,16.87l2.92-34.21l107.98-67.07L534.48,1041.44&#10;&#9;&#9;&#9;&#9;z M594.05,1087.7l-51.03-43.38l99.74-96.09L594.05,1087.7z M473.77,985.47l153.3-40.94l-116.41,72.3L473.77,985.47z" class="st1"/>
		</g>
		<g>
			<path d="M579.81,853.18c80.95,0,146.82,65.86,146.82,146.82s-65.86,146.82-146.82,146.82c-80.96,0-146.82-65.86-146.82-146.82&#10;&#9;&#9;&#9;&#9;S498.86,853.18,579.81,853.18 M579.81,845.19C494.45,845.19,425,914.64,425,1000c0,85.36,69.45,154.81,154.81,154.81&#10;&#9;&#9;&#9;&#9;c85.36,0,154.81-69.45,154.81-154.81C734.62,914.64,665.17,845.19,579.81,845.19z"/>
		</g>
	</g>
</g>
</svg>